<svg id="information" xmlns="http://www.w3.org/2000/svg" width="13.758" height="13.758" viewBox="0 0 13.758 13.758">
  <path id="Path_2485" data-name="Path 2485" d="M6.879,0a6.879,6.879,0,1,0,6.879,6.879A6.887,6.887,0,0,0,6.879,0Zm0,12.507a5.628,5.628,0,1,1,5.628-5.628A5.635,5.635,0,0,1,6.879,12.507Z"/>
  <path id="Path_2486" data-name="Path 2486" d="M145.836,70a.834.834,0,1,0,.834.834A.835.835,0,0,0,145.836,70Z" transform="translate(-138.957 -67.082)"/>
  <path id="Path_2487" data-name="Path 2487" d="M150.625,140a.625.625,0,0,0-.625.625v3.752a.625.625,0,1,0,1.251,0v-3.752A.625.625,0,0,0,150.625,140Z" transform="translate(-143.746 -134.163)"/>
</svg>
