<svg xmlns="http://www.w3.org/2000/svg" width="23.054" height="23.046" viewBox="0 0 23.054 23.046">
  <g id="add-user" transform="translate(0.508 0.5)">
    <g id="Group_1666" data-name="Group 1666">
      <path id="Path_1744" data-name="Path 1744" d="M15.828,11.062a11.2,11.2,0,0,0-1.3-.52,5.856,5.856,0,1,0-7.012,0A11.2,11.2,0,0,0,.056,18.891a2.616,2.616,0,0,0,2.557,3.155H13.219a.861.861,0,1,0,0-1.722H2.614A.875.875,0,0,1,1.925,20a.9.9,0,0,1-.182-.754A9.515,9.515,0,0,1,10.8,11.708q.114,0,.228,0t.231,0a9.381,9.381,0,0,1,3.834.91.861.861,0,0,0,.739-1.556ZM11.233,9.984l-.21,0-.208,0a4.134,4.134,0,1,1,.418,0Z" transform="translate(0 0)" fill="#979595" stroke="#979595" stroke-width="1"/>
      <path id="Path_1745" data-name="Path 1745" d="M329.32,325.229h-2.368v-2.368a.861.861,0,1,0-1.722,0v2.368h-2.368a.861.861,0,0,0,0,1.722h2.368v2.368a.861.861,0,0,0,1.722,0v-2.368h2.368a.861.861,0,0,0,0-1.722Z" transform="translate(-308.135 -308.135)" fill="#979595" stroke="#979595" stroke-width="1"/>
    </g>
  </g>
</svg>
