<svg xmlns="http://www.w3.org/2000/svg" width="13.029" height="14.641" viewBox="0 0 13.029 14.641">
  <g id="icon" transform="translate(-0.902 0)">
    <g id="Group_1853" data-name="Group 1853" transform="translate(0.902 0)">
      <path id="Path_2512" data-name="Path 2512" d="M4.32,4.508a.857.857,0,0,0,.213.465C4.74,6.35,5.893,7.628,6.945,7.628c1.227,0,2.345-1.383,2.561-2.652a.851.851,0,0,0,.216-.467c.07-.258.161-.707,0-.916L9.7,3.563a2.673,2.673,0,0,0-.335-2.424A2.459,2.459,0,0,0,8.123.375L7.742.242A6.2,6.2,0,0,0,6.694,0a.254.254,0,0,0-.086.007.453.453,0,0,1-.156.019A1.07,1.07,0,0,0,6.034.1a3,3,0,0,0-1.65,1.653A3.71,3.71,0,0,0,4.4,3.519a.309.309,0,0,0-.079.074C4.16,3.8,4.25,4.25,4.32,4.508ZM4.8,1.914c0-.005,0-.012.007-.019A2.589,2.589,0,0,1,6.193.517a.724.724,0,0,1,.2-.046.9.9,0,0,0,.293-.02A6.135,6.135,0,0,1,7.6.668L7.988.8a2.057,2.057,0,0,1,1.022.611.207.207,0,0,1,.014.017,2.4,2.4,0,0,1,.189,2.2.223.223,0,0,0,.051.226.227.227,0,0,0,.1.062,2.024,2.024,0,0,1-.079.487l-.005.025a.387.387,0,0,1-.117.256.233.233,0,0,0-.089.149c-.148,1.064-1.134,2.35-2.13,2.35C6.107,7.181,5.109,6,4.968,4.835a.219.219,0,0,0-.089-.152.4.4,0,0,1-.117-.257A.121.121,0,0,0,4.757,4.4a2.158,2.158,0,0,1-.078-.463A.228.228,0,0,0,4.8,3.89a.224.224,0,0,0,.082-.219A3.878,3.878,0,0,1,4.8,1.914Z" transform="translate(-1.255 0)" fill="#030104"/>
      <path id="Path_2513" data-name="Path 2513" d="M11.024,9.19a7.987,7.987,0,0,0-1.658-.751c-1-.354-1.009-.706-1.009-.706-1.969,3.884-3.465.013-3.465.013-.138.524-2.166,1.139-2.166,1.139a1.947,1.947,0,0,0-.843.569c-.876,1.3-.98,4.192-.98,4.192.012.661.3.73.3.73a17.8,17.8,0,0,0,5.178,1.059A15.8,15.8,0,0,0,8.792,15.3,3.525,3.525,0,0,1,11.024,9.19Z" transform="translate(-0.902 -0.82)" fill="#030104"/>
      <path id="Path_2514" data-name="Path 2514" d="M11.929,9.963A2.867,2.867,0,1,0,14.8,12.83,2.87,2.87,0,0,0,11.929,9.963ZM11.74,14.24a.157.157,0,0,1-.22,0l-1.379-1.39a.154.154,0,0,1,0-.219l.33-.33a.157.157,0,0,1,.22,0l.941.949,1.828-1.827a.155.155,0,0,1,.22,0l.328.328a.158.158,0,0,1,0,.222Z" transform="translate(-1.767 -1.056)" fill="#030104"/>
    </g>
  </g>
</svg>
