<svg xmlns="http://www.w3.org/2000/svg" width="16.674" height="13.101" viewBox="0 0 16.674 13.101">
  <g id="center-text-alignment" transform="translate(0 -54.817)">
    <path id="Path_2511" data-name="Path 2511" d="M16.674,66.131v1.191a.6.6,0,0,1-.6.6H.6a.574.574,0,0,1-.419-.177A.573.573,0,0,1,0,67.322V66.131a.572.572,0,0,1,.177-.419A.572.572,0,0,1,.6,65.536H16.078a.6.6,0,0,1,.6.6ZM4.169,61.963a.6.6,0,0,0-.6.6v1.191a.6.6,0,0,0,.6.6h8.337a.6.6,0,0,0,.6-.6V62.558a.6.6,0,0,0-.6-.6ZM1.787,60.772h13.1a.6.6,0,0,0,.6-.6V58.986a.6.6,0,0,0-.6-.6H1.787a.572.572,0,0,0-.419.177.572.572,0,0,0-.177.419v1.191a.572.572,0,0,0,.177.419A.572.572,0,0,0,1.787,60.772ZM5.36,57.2h5.955a.6.6,0,0,0,.6-.6V55.413a.6.6,0,0,0-.6-.6H5.36a.6.6,0,0,0-.6.6V56.6a.6.6,0,0,0,.6.6Z" transform="translate(0 0)"/>
  </g>
</svg>
