<svg id="camera" xmlns="http://www.w3.org/2000/svg" width="13.092" height="10.626" viewBox="0 0 13.092 10.626">
  <path id="Path_1727" data-name="Path 1727" d="M0,49.4v5.776a1.6,1.6,0,0,0,1.6,1.6h9.9a1.6,1.6,0,0,0,1.6-1.6V49.4a1.521,1.521,0,0,0-1.52-1.52H9.445l-.051-.222a1.942,1.942,0,0,0-1.9-1.51H5.6a1.947,1.947,0,0,0-1.9,1.51l-.051.222H1.52A1.523,1.523,0,0,0,0,49.4Zm3.906-.866a.326.326,0,0,0,.318-.254l.11-.476a1.292,1.292,0,0,1,1.264-1H7.492a1.292,1.292,0,0,1,1.264,1l.11.476a.328.328,0,0,0,.318.254h2.386a.865.865,0,0,1,.866.866v5.776a.943.943,0,0,1-.943.943H1.6a.943.943,0,0,1-.943-.943V49.4a.865.865,0,0,1,.866-.866Z" transform="translate(0 -46.15)"/>
  <circle id="Ellipse_24" data-name="Ellipse 24" cx="0.438" cy="0.438" r="0.438" transform="translate(1.777 3.345)"/>
  <path id="Path_1728" data-name="Path 1728" d="M144.849,180.649A2.749,2.749,0,1,0,142.1,177.9,2.754,2.754,0,0,0,144.849,180.649Zm0-4.844a2.095,2.095,0,1,1-2.095,2.095A2.1,2.1,0,0,1,144.849,175.8Z" transform="translate(-138.303 -171.703)"/>
</svg>
