<svg xmlns="http://www.w3.org/2000/svg" width="11.441" height="11.383" viewBox="0 0 11.441 11.383">
  <g id="edit" transform="translate(0 -0.261)">
    <path id="Path_2464" data-name="Path 2464" d="M10.559,45.207a.285.285,0,0,0-.285.285v2.53a.856.856,0,0,1-.855.855H1.425a.856.856,0,0,1-.855-.855V40.6a.856.856,0,0,1,.855-.855h2.53a.285.285,0,1,0,0-.57H1.425A1.426,1.426,0,0,0,0,40.6v7.425a1.426,1.426,0,0,0,1.425,1.425H9.42a1.426,1.426,0,0,0,1.425-1.425v-2.53a.285.285,0,0,0-.285-.285Zm0,0" transform="translate(0 -37.803)"/>
    <path id="Path_2465" data-name="Path 2465" d="M115.839.636a1.282,1.282,0,0,0-1.813,0L108.942,5.72a.285.285,0,0,0-.073.125L108.2,8.259a.285.285,0,0,0,.351.351l2.413-.669a.285.285,0,0,0,.125-.073l5.083-5.084a1.284,1.284,0,0,0,0-1.813ZM109.563,5.9l4.16-4.161,1.342,1.342L110.9,7.247Zm-.268.538,1.072,1.072-1.483.411Zm6.475-4.062-.3.3-1.342-1.342.3-.3a.712.712,0,0,1,1.007,0l.334.334A.713.713,0,0,1,115.77,2.381Zm0,0" transform="translate(-105.107)"/>
  </g>
</svg>
