<svg xmlns="http://www.w3.org/2000/svg" width="15.079" height="28.669" viewBox="0 0 15.079 28.669">
  <g id="flash" transform="translate(0.505 0.525)">
    <path id="Path_1734" data-name="Path 1734" d="M9.72,27.644a.414.414,0,0,1-.211-.057.418.418,0,0,1-.182-.5L13.7,15.062,8.414,13.555a.418.418,0,0,1-.206-.672L18.927.148a.419.419,0,0,1,.722.386L16.559,11.255l5.313,1.516a.418.418,0,0,1,.2.675L10.038,27.5A.422.422,0,0,1,9.72,27.644ZM9.264,12.927l5.1,1.452a.421.421,0,0,1,.259.212.417.417,0,0,1,.02.333L10.9,25.2,21.015,13.395l-5.089-1.451a.418.418,0,0,1-.288-.518L18.3,2.193Z" transform="translate(-8.109 0)" fill="#979595" stroke="#979595" stroke-width="1"/>
  </g>
</svg>
