<svg xmlns="http://www.w3.org/2000/svg" width="15.102" height="11.231" viewBox="0 0 15.102 11.231">
  <g id="XMLID_2_" transform="translate(0 -42.299)">
    <path id="XMLID_4_" d="M2.344,108.433H10.3a.686.686,0,0,0,0-1.373H2.344l.888-.887a.686.686,0,1,0-.971-.971L.2,107.261c-.016.016-.031.032-.045.05l-.01.013c-.01.013-.021.027-.03.041l-.008.013c-.009.015-.019.03-.027.045l0,.009c-.009.017-.017.034-.024.051l0,.007c-.007.018-.014.037-.02.056l0,.007c-.006.019-.011.038-.015.058s0,.012,0,.018-.006.032-.007.049a.677.677,0,0,0,0,.137c0,.017,0,.033.007.049s0,.011,0,.017.009.039.015.058l0,.007c.006.019.013.038.02.057l0,.006c.007.018.016.035.024.052l0,.009c.008.016.018.031.027.045l.007.012c.009.014.02.028.03.041l.01.013c.014.017.029.034.045.05l2.059,2.059a.686.686,0,1,0,.971-.971Z" transform="translate(0 -59.832)"/>
    <path id="XMLID_5_" d="M107.625,42.3a5.611,5.611,0,0,0-4.663,2.486.686.686,0,0,0,1.14.766,4.242,4.242,0,1,1,.006,4.734.686.686,0,0,0-1.138.769,5.615,5.615,0,1,0,4.656-8.755Z" transform="translate(-98.138)"/>
  </g>
</svg>
