<svg id="online" xmlns="http://www.w3.org/2000/svg" width="12.436" height="12.436" viewBox="0 0 12.436 12.436">
  <g id="Group_1855" data-name="Group 1855" transform="translate(0 0)">
    <g id="Group_1854" data-name="Group 1854">
      <path id="Path_2515" data-name="Path 2515" d="M11.305,0H1.131A1.132,1.132,0,0,0,0,1.131V11.305a1.132,1.132,0,0,0,1.131,1.131H11.305a1.132,1.132,0,0,0,1.131-1.131V1.131A1.132,1.132,0,0,0,11.305,0Zm.565,11.305a.566.566,0,0,1-.565.565H1.131a.566.566,0,0,1-.565-.565V2.826H11.871Zm0-9.044H.565V1.131A.566.566,0,0,1,1.131.565H11.305a.566.566,0,0,1,.565.565V2.261Z" transform="translate(0 0)"/>
      <circle id="Ellipse_32" data-name="Ellipse 32" cx="0.283" cy="0.283" r="0.283" transform="translate(1.131 1.131)"/>
      <circle id="Ellipse_33" data-name="Ellipse 33" cx="0.283" cy="0.283" r="0.283" transform="translate(2.261 1.131)"/>
      <circle id="Ellipse_34" data-name="Ellipse 34" cx="0.283" cy="0.283" r="0.283" transform="translate(3.392 1.131)"/>
      <path id="Path_2516" data-name="Path 2516" d="M64.283,154.42h5.653a.282.282,0,0,0,.283-.283v-4.522a.282.282,0,0,0-.283-.283H64.283a.282.282,0,0,0-.283.283v4.522A.282.282,0,0,0,64.283,154.42Zm.283-4.522h5.087v3.957H64.565Z" transform="translate(-62.304 -145.376)"/>
      <path id="Path_2517" data-name="Path 2517" d="M107.515,192a.849.849,0,0,0-.848.848v1.7a.283.283,0,1,0,.565,0v-.283h.565v.283a.283.283,0,1,0,.565,0v-1.7A.849.849,0,0,0,107.515,192Zm.283,1.7h-.565v-.848a.283.283,0,1,1,.565,0v.848Z" transform="translate(-103.841 -186.913)"/>
      <path id="Path_2518" data-name="Path 2518" d="M192.848,192h-.565a.282.282,0,0,0-.283.283v2.261a.282.282,0,0,0,.283.283h.565a.849.849,0,0,0,.848-.848v-1.131A.849.849,0,0,0,192.848,192Zm.283,1.978a.283.283,0,0,1-.283.283h-.283v-1.7h.283a.283.283,0,0,1,.283.283Z" transform="translate(-186.913 -186.913)"/>
      <path id="Path_2519" data-name="Path 2519" d="M64.283,384.564h8.479a.283.283,0,1,0,0-.565H64.283a.283.283,0,1,0,0,.565Z" transform="translate(-62.304 -373.824)"/>
      <path id="Path_2520" data-name="Path 2520" d="M320.283,192.565h1.7a.283.283,0,1,0,0-.565h-1.7a.283.283,0,0,0,0,.565Z" transform="translate(-311.521 -186.913)"/>
      <path id="Path_2521" data-name="Path 2521" d="M320.283,256.565h1.7a.283.283,0,1,0,0-.565h-1.7a.283.283,0,0,0,0,.565Z" transform="translate(-311.521 -249.217)"/>
      <path id="Path_2522" data-name="Path 2522" d="M320.283,320.564h1.7a.283.283,0,1,0,0-.565h-1.7a.283.283,0,0,0,0,.565Z" transform="translate(-311.521 -311.52)"/>
    </g>
  </g>
</svg>
