<svg xmlns="http://www.w3.org/2000/svg" width="22" height="17.448" viewBox="0 0 22 17.448">
  <g id="picture" transform="translate(0 -6)">
    <path id="Path_1746" data-name="Path 1746" d="M21.621,6H.379A.379.379,0,0,0,0,6.379v16.69a.379.379,0,0,0,.379.379H21.621A.379.379,0,0,0,22,23.069V6.379A.379.379,0,0,0,21.621,6Zm-.379,16.69H.759V6.759H21.241Z" fill="#797979"/>
    <path id="Path_1747" data-name="Path 1747" d="M12.543,21.225a2.112,2.112,0,1,0-2.112-2.112A2.115,2.115,0,0,0,12.543,21.225Zm0-3.466a1.354,1.354,0,1,1-1.354,1.354A1.356,1.356,0,0,1,12.543,17.759Z" transform="translate(-6.474 -6.828)" fill="#797979"/>
    <path id="Path_1748" data-name="Path 1748" d="M6.379,31.725a.378.378,0,0,0,.25-.094l6.188-5.448,3.908,3.907a.379.379,0,0,0,.536-.536L15.438,27.73l3.482-3.814,4.271,3.916a.379.379,0,0,0,.512-.559L19.152,23.1a.391.391,0,0,0-.273-.1.38.38,0,0,0-.263.123L14.9,27.193l-1.8-1.8a.38.38,0,0,0-.519-.017L6.128,31.06a.379.379,0,0,0,.251.664Z" transform="translate(-3.724 -10.552)" fill="#797979"/>
  </g>
</svg>
