<svg xmlns="http://www.w3.org/2000/svg" width="10.896" height="13.087" viewBox="0 0 10.896 13.087">
  <g id="shield" transform="translate(-0.264 0)">
    <path id="Path_2471" data-name="Path 2471" d="M10.929,1.973h-.385a6.887,6.887,0,0,1-2.472-.4A5.647,5.647,0,0,1,6.123.315L5.855.058a.206.206,0,0,0-.286,0L5.3.312A5.968,5.968,0,0,1,.881,1.973H.5a.213.213,0,0,0-.2.217v.385c0,.31-.008.631-.014.97A14.191,14.191,0,0,0,.845,8.765a7.027,7.027,0,0,0,4.674,4.267l.126.044a.205.205,0,0,0,.134,0l.126-.044A7.028,7.028,0,0,0,10.58,8.765a14.188,14.188,0,0,0,.566-5.221c-.006-.339-.014-.66-.014-.97V2.19a.213.213,0,0,0-.2-.217Zm-.735,6.651a6.642,6.642,0,0,1-4.423,4.021l-.059.02-.059-.02A6.641,6.641,0,0,1,1.23,8.623,13.876,13.876,0,0,1,.69,3.553C.7,3.211.7,2.889.7,2.575V2.384H.881A6.355,6.355,0,0,0,5.587.608L5.712.49l.125.122A6.044,6.044,0,0,0,7.926,1.955a7.29,7.29,0,0,0,2.618.428h.177v.191c0,.314.008.637.014.978a13.876,13.876,0,0,1-.541,5.071Zm0,0" transform="translate(0 0)"/>
    <path id="Path_2472" data-name="Path 2472" d="M39.565,43.772c0-.206-.008-.4-.01-.594a.205.205,0,0,0-.2-.2,6.566,6.566,0,0,1-4.321-1.636.205.205,0,0,0-.271,0,6.566,6.566,0,0,1-4.321,1.636.206.206,0,0,0-.2.2c0,.193-.006.387-.01.594v.015a13.6,13.6,0,0,0,.52,4.939,6.252,6.252,0,0,0,4.075,3.76.205.205,0,0,0,.139,0,6.252,6.252,0,0,0,4.075-3.76,13.6,13.6,0,0,0,.52-4.939Zm-.906,4.813a5.838,5.838,0,0,1-3.759,3.49,5.838,5.838,0,0,1-3.759-3.49,13.3,13.3,0,0,1-.495-4.79V43.78c0-.138.005-.272.007-.4a7.642,7.642,0,0,0,2.306-.468,6.654,6.654,0,0,0,1.94-1.144,6.654,6.654,0,0,0,1.94,1.144,7.641,7.641,0,0,0,2.306.468c0,.131,0,.265.007.4V43.8a13.294,13.294,0,0,1-.495,4.789Zm0,0" transform="translate(-29.189 -40.228)"/>
    <path id="Path_2473" data-name="Path 2473" d="M129.266,143.063v-.83a1.57,1.57,0,0,0-.5-1.151,1.686,1.686,0,0,0-2.836,1.151v.83a.7.7,0,0,0-.565.693v2.026a.71.71,0,0,0,.724.705h3.021a.71.71,0,0,0,.724-.705v-2.026a.7.7,0,0,0-.565-.693Zm-2.928-.83a1.227,1.227,0,0,1,1.259-1.191h0a1.273,1.273,0,0,1,.882.341,1.159,1.159,0,0,1,.374.85v.813h-2.517Zm3.082,3.549a.3.3,0,0,1-.313.294h-3.021a.3.3,0,0,1-.313-.294v-2.026a.3.3,0,0,1,.313-.3h3.021a.3.3,0,0,1,.313.3Zm0,0" transform="translate(-121.885 -137.015)"/>
    <path id="Path_2474" data-name="Path 2474" d="M192,283.563a.529.529,0,0,0-.537.52.521.521,0,0,0,.331.481v.276a.205.205,0,1,0,.411,0v-.276a.521.521,0,0,0,.331-.481A.529.529,0,0,0,192,283.563Zm0,.63a.11.11,0,1,1,.126-.109A.119.119,0,0,1,192,284.193Zm0,0" transform="translate(-186.289 -276.279)"/>
  </g>
</svg>
