<svg id="selected_message" xmlns="http://www.w3.org/2000/svg" width="29.726" height="23.895" viewBox="0 0 29.726 23.895">
  <path id="Path" d="M19.186,0h-.814V9.115a2.45,2.45,0,0,1-2.438,2.7H0v.433a2.889,2.889,0,0,0,2.84,2.521H15.022l4.661,2.791-.676-2.791h.179c1.438,0,2.087-1.264,2.087-2.521V2.164A1.937,1.937,0,0,0,19.186,0Z" transform="translate(8.454 6.333)" fill="#51647C"/>
  <path id="Shape" d="M2.12,20.547v0h0l.99-3.829C1.582,16.57,0,15.632,0,14.317V2.894C0,1.515,1.833,0,3.5,0H22.009a3.225,3.225,0,0,1,3.13,2.894V14.317c0,1.337-1.4,2.425-3.13,2.425H8.47l-6.347,3.8Zm16.7-14.309a1.7,1.7,0,1,0,1.672,1.7A1.69,1.69,0,0,0,18.815,6.238Zm-6.245,0a1.7,1.7,0,1,0,1.672,1.7A1.69,1.69,0,0,0,12.57,6.238Zm-6.245,0A1.7,1.7,0,1,0,8,7.941,1.689,1.689,0,0,0,6.325,6.238Z" fill="#51647C"/>
</svg>
