<svg xmlns="http://www.w3.org/2000/svg" width="12.308" height="12.308" viewBox="0 0 12.308 12.308">
  <g id="settings" transform="translate(-0.004 0)">
    <path id="Path_2469" data-name="Path 2469" d="M12.042,5,10.98,4.9a4.913,4.913,0,0,0-.532-1.263l.675-.814a.3.3,0,0,0-.018-.4l-1.2-1.211a.3.3,0,0,0-.4-.02l-.817.676a5.028,5.028,0,0,0-1.263-.533L7.322.27a.3.3,0,0,0-.3-.27H5.306a.3.3,0,0,0-.3.27l-.1,1.06a4.932,4.932,0,0,0-1.265.532l-.816-.674a.3.3,0,0,0-.4.019L1.212,2.418a.3.3,0,0,0-.019.4l.676.816A5.018,5.018,0,0,0,1.336,4.9L.274,5A.3.3,0,0,0,0,5.3V7.013a.3.3,0,0,0,.27.3l1.062.1a4.913,4.913,0,0,0,.532,1.263l-.675.814a.3.3,0,0,0,.019.4L2.424,11.1a.3.3,0,0,0,.4.019l.817-.676a5.028,5.028,0,0,0,1.263.533l.1,1.061a.3.3,0,0,0,.3.27H7.025a.3.3,0,0,0,.3-.27l.1-1.06a4.928,4.928,0,0,0,1.265-.532l.816.675a.3.3,0,0,0,.4-.019l1.212-1.211a.3.3,0,0,0,.019-.4l-.676-.816A5.019,5.019,0,0,0,11,7.412l1.047-.1a.3.3,0,0,0,.27-.3V5.3a.3.3,0,0,0-.27-.3Zm-.327,1.743-.989.1a.3.3,0,0,0-.263.234,4.422,4.422,0,0,1-.619,1.465.3.3,0,0,0,.021.353l.64.771-.827.826L8.9,9.848a.3.3,0,0,0-.356-.018,4.306,4.306,0,0,1-1.463.616.3.3,0,0,0-.234.263l-.1,1H5.577l-.1-1a.3.3,0,0,0-.234-.263,4.439,4.439,0,0,1-1.467-.618.3.3,0,0,0-.352.021l-.773.639-.827-.827.64-.771a.3.3,0,0,0,.019-.357,4.289,4.289,0,0,1-.617-1.461A.3.3,0,0,0,1.6,6.838l-1-.1V5.567l1-.1a.3.3,0,0,0,.263-.234,4.427,4.427,0,0,1,.619-1.465.3.3,0,0,0-.021-.353l-.639-.771.827-.827.773.639a.3.3,0,0,0,.356.018,4.3,4.3,0,0,1,1.463-.616A.3.3,0,0,0,5.481,1.6l.1-1H6.754l.1,1a.3.3,0,0,0,.234.263,4.437,4.437,0,0,1,1.467.618A.3.3,0,0,0,8.9,2.461l.772-.638.815.824-.641.773a.3.3,0,0,0-.019.357,4.292,4.292,0,0,1,.617,1.461.3.3,0,0,0,.263.234l1,.1Zm0,0"/>
    <path id="Path_2470" data-name="Path 2470" d="M114.361,111.539a2.822,2.822,0,1,0,2.822,2.822A2.822,2.822,0,0,0,114.361,111.539Zm0,5.046a2.224,2.224,0,1,1,2.224-2.224A2.225,2.225,0,0,1,114.361,116.585Zm0,0" transform="translate(-108.203 -108.206)"/>
  </g>
</svg>
