<svg xmlns="http://www.w3.org/2000/svg" width="13.223" height="13.802" viewBox="0 0 13.223 13.802">
  <g id="accept" transform="translate(0 0.001)">
    <path id="Path_2475" data-name="Path 2475" d="M64.575,98.637H62.162a.4.4,0,0,0,0,.809h2.413a.4.4,0,1,0,0-.809Zm0,0" transform="translate(-60.093 -95.978)"/>
    <path id="Path_2476" data-name="Path 2476" d="M64.575,158.641H62.162a.4.4,0,0,0,0,.809h2.413a.4.4,0,1,0,0-.809Zm0,0" transform="translate(-60.093 -154.365)"/>
    <path id="Path_2477" data-name="Path 2477" d="M64.575,218.645H62.162a.4.4,0,0,0,0,.809h2.413a.4.4,0,1,0,0-.809Zm0,0" transform="translate(-60.093 -212.752)"/>
    <path id="Path_2478" data-name="Path 2478" d="M64.575,278.648H62.162a.4.4,0,1,0,0,.809h2.413a.4.4,0,1,0,0-.809Zm0,0" transform="translate(-60.093 -271.137)"/>
    <path id="Path_2479" data-name="Path 2479" d="M64.575,339.656H62.162a.4.4,0,1,0,0,.809h2.413a.4.4,0,1,0,0-.809Zm0,0" transform="translate(-60.093 -330.501)"/>
    <path id="Path_2480" data-name="Path 2480" d="M202.06,99.446h2.413a.4.4,0,1,0,0-.809H202.06a.4.4,0,1,0,0,.809Zm0,0" transform="translate(-196.22 -95.979)"/>
    <path id="Path_2481" data-name="Path 2481" d="M202.06,159.45h2.413a.4.4,0,1,0,0-.809H202.06a.4.4,0,0,0,0,.809Zm0,0" transform="translate(-196.22 -154.365)"/>
    <path id="Path_2482" data-name="Path 2482" d="M203.627,219.049a.4.4,0,0,0-.4-.4H202.06a.4.4,0,1,0,0,.809h1.162A.4.4,0,0,0,203.627,219.049Zm0,0" transform="translate(-196.22 -212.752)"/>
    <path id="Path_2483" data-name="Path 2483" d="M312.329,342.777a.4.4,0,0,0-.568.062l-1.041,1.3-.645-.467a.4.4,0,1,0-.474.655l.956.693a.4.4,0,0,0,.553-.074l1.282-1.6A.4.4,0,0,0,312.329,342.777Zm0,0" transform="translate(-301.091 -333.451)"/>
    <path id="Path_2484" data-name="Path 2484" d="M12.259,8.085a3.335,3.335,0,0,0-1.937-.973V1.628A1.63,1.63,0,0,0,8.694,0H1.629A1.63,1.63,0,0,0,0,1.628v9.367a1.63,1.63,0,0,0,1.628,1.629H7.311A3.329,3.329,0,0,0,9.865,13.8a3.361,3.361,0,0,0,2.394-5.716ZM.809,10.994V1.628a.821.821,0,0,1,.82-.82H8.694a.821.821,0,0,1,.82.82V7.1A3.363,3.363,0,0,0,6.8,11.814H1.629a.821.821,0,0,1-.82-.82Zm9.056,2a2.552,2.552,0,0,1,0-5.1h.046a2.552,2.552,0,0,1-.046,5.1Zm0,0" transform="translate(0 0)"/>
  </g>
</svg>
