<svg id="unslected_home" xmlns="http://www.w3.org/2000/svg" width="23.217" height="21.296" viewBox="0 0 23.217 21.296">
  <g id="Group_1665" data-name="Group 1665">
    <path id="Path" d="M22.827,9.624,19.309,6.158v-4a1.331,1.331,0,0,0-2.661,0V3.536L14.027.955a3.54,3.54,0,0,0-4.84,0L.39,9.624a1.3,1.3,0,0,0,0,1.854,1.345,1.345,0,0,0,1.883,0l8.8-8.666a.794.794,0,0,1,1.077,0l8.8,8.667a1.347,1.347,0,0,0,1.883,0A1.3,1.3,0,0,0,22.827,9.624Z" transform="translate(0 0)" fill="#979595"/>
    <path id="Path-2" data-name="Path" d="M8.855.189a.66.66,0,0,0-.924,0L.191,7.809A.64.64,0,0,0,0,8.265v5.558a2.38,2.38,0,0,0,2.4,2.362H6.229V10.34h4.326v5.845h3.832a2.38,2.38,0,0,0,2.4-2.362V8.265a.638.638,0,0,0-.191-.456Z" transform="translate(3.216 5.11)" fill="#979595"/>
  </g>
</svg>
